<svg version="1.1" id="Layer_1" xmlns="http://www.w3.org/2000/svg" xmlns:xlink="http://www.w3.org/1999/xlink" x="0px" y="0px"
	 width="100%" viewBox="0 0 2000 1500" enable-background="new 0 0 2000 1500" xml:space="preserve">
<path fill="#FFBE79" opacity="1.000000" stroke="none" 
	d="
M1219.000000,1501.000000 
	C812.666809,1501.000000 406.833588,1501.000000 1.000272,1501.000000 
	C1.000181,1001.000244 1.000181,501.000549 1.000091,1.000608 
	C667.666199,1.000405 1334.332397,1.000405 2000.998901,1.000203 
	C2000.999268,500.999390 2000.999268,1000.998779 2000.999634,1500.999023 
	C1740.500000,1501.000000 1480.000000,1501.000000 1219.000000,1501.000000 
M1443.395874,661.695251 
	C1440.483887,664.739502 1437.603271,667.814575 1434.649048,670.817200 
	C1432.620972,672.878540 1430.490845,674.839294 1428.406250,676.844971 
	C1426.884521,666.236572 1426.478882,656.670105 1425.992798,647.107727 
	C1425.580811,639.005127 1425.423462,630.869141 1424.541626,622.814880 
	C1422.501953,604.182251 1419.905396,585.609924 1417.924438,566.971741 
	C1417.149780,559.683167 1414.954956,553.322083 1411.002930,547.075317 
	C1386.609131,508.518097 1362.541870,469.754486 1338.312744,431.092834 
	C1333.542480,423.481232 1329.180420,415.491272 1323.527954,408.576843 
	C1302.517456,382.876404 1276.304932,363.663696 1246.536987,349.297913 
	C1224.584473,338.703705 1201.935181,329.455811 1177.577148,326.753387 
	C1161.723633,324.994507 1145.546753,326.354523 1129.540894,325.687805 
	C1120.224731,325.299774 1113.105469,327.606476 1110.296387,335.603394 
	C1100.716064,335.356934 1091.990112,334.759552 1083.286133,334.991058 
	C1068.146729,335.393738 1059.845459,351.319763 1068.452759,363.785370 
	C1071.687378,368.470001 1076.199097,372.547699 1080.832153,375.941345 
	C1095.692871,386.826630 1113.055542,390.577637 1130.997437,391.860352 
	C1135.450928,392.178772 1139.423340,392.797089 1143.191528,395.236755 
	C1170.996094,413.238464 1199.131226,430.747742 1226.589966,449.260742 
	C1250.336060,465.270660 1273.424438,482.266693 1296.583618,499.128815 
	C1301.850952,502.963989 1306.898193,504.025360 1312.700806,501.515076 
	C1317.121704,499.602570 1321.415527,497.396820 1325.775879,495.342651 
	C1326.709473,494.902802 1327.685913,494.554047 1329.179688,493.944061 
	C1329.179688,499.559357 1328.203247,504.756012 1329.371948,509.414490 
	C1332.273682,520.980103 1336.129517,532.307739 1339.648926,543.716431 
	C1343.090210,554.871399 1349.931396,563.303650 1359.910522,569.372437 
	C1366.188232,573.190247 1370.895874,578.581482 1373.600342,585.472595 
	C1377.656494,595.808350 1377.012573,606.498779 1374.366455,616.866150 
	C1373.056274,621.999512 1373.462769,625.982727 1375.848267,630.505981 
	C1384.990234,647.839600 1394.765625,664.585388 1411.241333,676.273621 
	C1412.723389,677.325073 1413.419067,679.856079 1413.900391,681.840454 
	C1414.359985,683.735596 1413.513794,686.041931 1414.225952,687.759155 
	C1415.299561,690.347839 1416.764038,693.447083 1418.973267,694.634338 
	C1420.253662,695.322327 1423.345703,692.742798 1425.563110,691.525635 
	C1426.307129,691.117310 1426.867676,690.374695 1428.073120,689.271484 
	C1427.326538,695.515320 1426.693237,700.961914 1426.019287,706.403503 
	C1425.367798,711.663940 1424.395996,716.902466 1424.076660,722.181519 
	C1423.745361,727.658264 1423.793457,733.185669 1424.109741,738.665833 
	C1424.411987,743.903503 1425.272705,749.108948 1425.887939,754.328552 
	C1427.133301,749.741882 1427.466187,745.298340 1428.101807,740.898560 
	C1430.284058,725.790039 1432.064819,710.597900 1434.985962,695.630249 
	C1437.204468,684.262512 1440.925171,673.187866 1444.312866,661.883118 
	C1444.233032,661.939209 1444.153320,661.995361 1443.395874,661.695251 
M1092.919067,1077.409180 
	C1092.693359,1077.403564 1092.467529,1077.397949 1092.241821,1077.392334 
	C1092.325806,1077.756714 1092.409790,1078.121216 1092.673706,1079.261475 
	C1093.215698,1082.848389 1093.757568,1086.435181 1094.504883,1091.381958 
	C1091.771606,1089.527832 1090.550537,1088.699463 1088.749634,1087.477783 
	C1089.351196,1095.006714 1087.583130,1100.793701 1081.041382,1104.239746 
	C1080.058472,1104.757446 1079.307129,1105.799072 1078.580444,1106.703979 
	C1075.099731,1111.038696 1070.502808,1112.319336 1065.077515,1113.035400 
	C1049.458008,1115.097290 1033.939697,1117.916626 1018.356812,1120.274048 
	C1015.492371,1120.707397 1012.359558,1120.979980 1009.607605,1120.294800 
	C979.725830,1112.855469 949.419861,1108.084961 918.823425,1104.760010 
	C903.312012,1103.074341 887.712891,1101.177856 872.536499,1097.703369 
	C856.185242,1093.959961 841.524963,1085.690674 827.159607,1076.537354 
	C836.687744,1071.073730 839.330566,1066.535889 836.586426,1060.649048 
	C831.970093,1067.508789 824.361328,1067.551758 817.459045,1068.815796 
	C815.330017,1069.205688 812.216614,1068.205322 810.591858,1066.712158 
	C800.778748,1057.693848 791.258423,1048.356445 781.655457,1039.109741 
	C749.370056,1008.022400 717.113220,976.905273 684.801208,945.845581 
	C666.451233,928.206909 653.125488,907.434082 644.809326,883.344849 
	C641.936035,875.021790 638.239929,866.980042 634.838989,858.843506 
	C633.844299,856.463684 632.571594,854.200012 631.308777,851.645203 
	C628.102234,854.177124 625.703613,857.886108 621.574402,854.262329 
	C617.435547,850.630188 615.174133,842.368225 617.297302,838.356812 
	C619.989441,833.270630 623.940308,834.964783 628.075317,836.908997 
	C627.998779,835.390869 628.026855,834.395447 627.888062,833.423828 
	C625.768494,818.589844 624.259521,803.632019 621.312927,788.963135 
	C618.361023,774.267822 618.966431,760.661133 627.353577,747.765930 
	C629.280151,744.803833 630.512268,741.031006 630.922852,737.498596 
	C634.441345,707.226318 638.136780,676.963989 640.930237,646.620544 
	C645.242798,599.775696 661.227539,557.673584 689.940857,520.371948 
	C709.559570,494.885162 732.817444,472.924835 756.544250,451.442200 
	C767.139893,441.848724 777.471863,431.571686 789.416748,423.943024 
	C813.531677,408.541962 838.474854,394.396667 863.433716,380.369171 
	C891.484253,364.604065 921.127502,352.728882 953.295105,348.695648 
	C967.063843,346.969330 981.039062,346.887207 994.921265,346.072327 
	C995.582275,346.033569 996.275085,346.034851 996.913269,346.185760 
	C1004.539001,347.989136 1012.034546,347.097656 1019.457581,345.071686 
	C1025.057739,343.543213 1029.233032,340.059631 1030.005005,334.281158 
	C1030.977295,327.001923 1030.959717,319.590454 1031.410278,311.497864 
	C1023.562134,314.542389 1018.276123,311.644226 1013.306458,307.589355 
	C1010.724670,305.482910 1008.259644,303.211670 1005.543213,301.296661 
	C999.914124,297.328369 994.168152,294.881927 987.167053,298.704437 
	C983.123596,300.912140 978.478577,302.015778 974.108521,303.627655 
	C951.131348,312.102753 928.198303,320.665955 908.152222,335.265625 
	C907.457825,335.771332 906.368286,335.734619 905.346741,335.978424 
	C905.577393,331.106049 905.890076,326.538605 905.981873,321.966705 
	C906.067139,317.719177 903.755493,316.114471 900.056396,318.285461 
	C896.944702,320.111755 894.303162,322.774414 891.562866,325.190887 
	C885.445862,330.584808 879.499695,336.176971 873.283875,341.452606 
	C869.263733,344.864624 864.622620,345.726654 859.246948,344.641144 
	C855.429993,343.870361 851.208984,343.913757 847.368591,344.645203 
	C827.705200,348.390289 814.903931,360.597687 807.256226,378.568542 
	C806.007385,381.503021 804.838501,383.504272 801.469788,383.362610 
	C794.911987,383.086792 788.293030,383.253052 781.812012,382.390350 
	C770.807800,380.925537 761.235107,382.559509 752.843079,390.724121 
	C729.918945,413.027069 706.742554,435.074036 683.452698,456.995728 
	C676.787415,463.269501 672.288879,470.531158 669.922302,479.268280 
	C667.299927,488.949707 662.613098,497.480713 655.397705,504.505524 
	C645.134583,514.497498 635.254333,524.945007 624.407043,534.262512 
	C595.748718,558.879089 577.585876,589.437500 570.877319,626.574646 
	C565.937195,653.922668 561.715393,681.399963 556.914429,708.774231 
	C556.226990,712.693665 556.916199,715.753906 558.728027,719.113220 
	C570.921509,741.720703 581.787964,764.922363 588.335083,789.873840 
	C590.865784,799.518433 592.815063,809.328125 594.696167,819.126526 
	C596.167358,826.789734 592.906311,829.833191 585.326538,828.461548 
	C584.726257,828.353027 584.100159,828.386719 583.113708,828.334717 
	C583.261597,840.989990 581.560486,853.582214 586.308960,865.525146 
	C591.102600,877.581787 596.268188,889.496521 601.509155,901.368225 
	C617.770508,938.202820 634.922180,974.667419 647.629028,1012.967407 
	C649.164124,1017.594482 650.149170,1021.466187 656.215942,1023.417664 
	C664.182434,1025.980225 666.610413,1033.999756 667.905518,1041.862183 
	C670.114563,1055.273315 674.050049,1068.137817 680.999573,1079.878784 
	C693.565002,1101.107544 711.246399,1113.648071 736.994263,1112.154907 
	C740.648560,1111.942749 744.330627,1111.983398 747.990295,1112.136230 
	C757.333740,1112.526489 766.234863,1114.551880 773.510803,1120.825195 
	C788.333374,1133.605225 805.673157,1139.007568 824.977051,1139.034912 
	C826.758850,1139.037476 828.796204,1139.032471 830.283020,1139.833130 
	C852.843994,1151.980957 875.434082,1164.082764 897.762817,1176.647583 
	C902.948547,1179.565674 907.271790,1182.155518 912.956543,1175.788330 
	C912.956543,1181.286621 912.956543,1185.488403 912.956543,1190.085938 
	C915.251343,1189.815674 916.868103,1189.598877 918.490417,1189.438110 
	C933.868469,1187.914185 949.219238,1185.888184 964.634766,1185.039185 
	C977.708130,1184.318970 990.920593,1184.166260 1003.954590,1185.214722 
	C1018.314880,1186.369995 1032.531860,1189.255493 1046.834961,1191.214600 
	C1049.825439,1191.624268 1052.920044,1191.332642 1055.964966,1191.272461 
	C1062.563965,1191.142090 1069.595337,1189.420288 1075.661377,1191.136353 
	C1085.454468,1193.906738 1094.543335,1199.095825 1104.071899,1202.907959 
	C1107.831665,1204.412109 1111.926880,1205.364990 1115.954346,1205.824951 
	C1119.424438,1206.221191 1121.208984,1204.136230 1120.269897,1200.434326 
	C1119.950684,1199.176147 1119.597778,1197.926636 1119.230103,1196.560547 
	C1127.436157,1191.365845 1136.855835,1190.489258 1145.688599,1187.736572 
	C1156.203125,1184.460083 1163.533936,1186.576294 1169.225464,1196.204956 
	C1171.023438,1199.246460 1174.954956,1201.026855 1177.909912,1203.384399 
	C1179.001831,1199.159302 1178.967285,1196.002808 1179.008423,1192.847534 
	C1179.129395,1183.567993 1183.493286,1179.128296 1192.764771,1179.136230 
	C1196.047974,1179.138916 1199.325439,1179.798584 1202.615234,1179.962036 
	C1205.588013,1180.109863 1206.778442,1179.366333 1206.227539,1175.617676 
	C1205.392822,1169.937134 1205.082886,1163.758423 1209.504761,1159.069824 
	C1219.219238,1148.769653 1228.995483,1138.516846 1239.071411,1128.573853 
	C1242.878662,1124.816650 1247.581787,1121.967041 1251.870728,1118.708130 
	C1256.867798,1124.118896 1261.190796,1128.799927 1265.666016,1133.645630 
	C1267.072998,1126.647583 1264.928345,1120.963623 1261.182251,1115.862183 
	C1259.124878,1113.060425 1256.423950,1110.740601 1254.155640,1108.081909 
	C1251.832031,1105.358154 1251.611206,1103.018799 1255.775635,1101.869385 
	C1265.672485,1099.137695 1275.356812,1092.438843 1286.672485,1102.027222 
	C1281.115234,1091.068970 1286.215088,1089.175659 1293.262817,1087.298096 
	C1296.546021,1086.423462 1300.216187,1086.956543 1303.711670,1086.931641 
	C1313.267334,1086.863281 1319.913574,1081.209106 1319.833984,1071.651855 
	C1319.789551,1066.339722 1321.945068,1062.910278 1325.069824,1059.412476 
	C1361.726196,1018.379456 1388.057983,971.246521 1407.404053,919.990417 
	C1408.015137,918.371399 1408.553955,916.725037 1409.126343,915.091370 
	C1406.440796,915.923279 1404.557373,917.247009 1402.759155,918.677856 
	C1392.085449,927.170532 1383.391724,937.395935 1376.156494,948.929932 
	C1371.256226,956.741272 1369.282471,957.369446 1360.594727,954.350891 
	C1358.980225,959.317932 1357.365112,964.286621 1355.750000,969.255371 
	C1355.564087,969.192200 1355.378296,969.129028 1355.192505,969.065857 
	C1355.192505,965.513123 1355.192505,961.960388 1355.192505,957.657898 
	C1352.613647,959.642456 1350.536133,961.220215 1348.480713,962.826172 
	C1297.400146,1002.736816 1245.512573,1041.531006 1190.897217,1076.539673 
	C1187.838013,1078.500488 1184.562500,1080.276489 1181.160889,1081.515991 
	C1175.700562,1083.505371 1171.408325,1081.879395 1168.093018,1077.155029 
	C1167.155640,1075.819214 1166.356201,1074.386475 1165.242188,1072.593872 
	C1162.426392,1075.038818 1160.036743,1077.687378 1157.119629,1079.475708 
	C1154.508545,1081.076538 1151.316162,1081.729126 1148.380249,1082.800049 
	C1147.810791,1079.883545 1147.246582,1076.965942 1146.663452,1074.052246 
	C1146.608276,1073.776733 1146.435059,1073.525024 1146.146118,1072.884155 
	C1142.011719,1072.884155 1137.145752,1071.638916 1133.544067,1073.239136 
	C1130.035645,1074.797852 1127.820679,1079.268311 1124.874756,1082.647461 
	C1123.360840,1080.513062 1121.720825,1078.200928 1119.329224,1074.829224 
	C1118.310303,1080.497192 1117.540161,1084.781250 1116.719604,1089.346069 
	C1113.262939,1083.025513 1112.205566,1083.433228 1105.778687,1092.939697 
	C1101.590820,1087.978516 1097.339111,1082.941772 1092.919067,1077.409180 
M1179.186401,503.795013 
	C1179.354858,502.996918 1179.523438,502.198792 1179.721680,501.259827 
	C1157.428955,501.259827 1135.331909,501.259827 1113.072266,501.259827 
	C1076.388062,645.566284 1039.756104,789.666748 1003.124146,933.767212 
	C1002.815735,933.734619 1002.507263,933.702026 1002.198792,933.669495 
	C965.070374,789.505493 927.941895,645.341553 890.815186,501.184265 
	C867.408386,501.184265 844.442749,501.184265 821.036133,501.184265 
	C867.826111,667.980408 914.535522,834.489319 961.181702,1000.772888 
	C988.523804,1000.772888 1015.142151,1000.772888 1041.998169,1000.772888 
	C1087.699951,835.278687 1133.360107,669.935303 1179.186401,503.795013 
z"/>
<path fill="#384251" opacity="1.000000" stroke="none" 
	d="
M1093.087280,1077.904907 
	C1097.339111,1082.941772 1101.590820,1087.978516 1105.778687,1092.939697 
	C1112.205566,1083.433228 1113.262939,1083.025513 1116.719604,1089.346069 
	C1117.540161,1084.781250 1118.310303,1080.497192 1119.329224,1074.829224 
	C1121.720825,1078.200928 1123.360840,1080.513062 1124.874756,1082.647461 
	C1127.820679,1079.268311 1130.035645,1074.797852 1133.544067,1073.239136 
	C1137.145752,1071.638916 1142.011719,1072.884155 1146.146118,1072.884155 
	C1146.435059,1073.525024 1146.608276,1073.776733 1146.663452,1074.052246 
	C1147.246582,1076.965942 1147.810791,1079.883545 1148.380249,1082.800049 
	C1151.316162,1081.729126 1154.508545,1081.076538 1157.119629,1079.475708 
	C1160.036743,1077.687378 1162.426392,1075.038818 1165.242188,1072.593872 
	C1166.356201,1074.386475 1167.155640,1075.819214 1168.093018,1077.155029 
	C1171.408325,1081.879395 1175.700562,1083.505371 1181.160889,1081.515991 
	C1184.562500,1080.276489 1187.838013,1078.500488 1190.897217,1076.539673 
	C1245.512573,1041.531006 1297.400146,1002.736816 1348.480713,962.826172 
	C1350.536133,961.220215 1352.613647,959.642456 1355.192505,957.657898 
	C1355.192505,961.960388 1355.192505,965.513123 1355.192505,969.065857 
	C1355.378296,969.129028 1355.564087,969.192200 1355.750000,969.255371 
	C1357.365112,964.286621 1358.980225,959.317932 1360.594727,954.350891 
	C1369.282471,957.369446 1371.256226,956.741272 1376.156494,948.929932 
	C1383.391724,937.395935 1392.085449,927.170532 1402.759155,918.677856 
	C1404.557373,917.247009 1406.440796,915.923279 1409.126343,915.091370 
	C1408.553955,916.725037 1408.015137,918.371399 1407.404053,919.990417 
	C1388.057983,971.246521 1361.726196,1018.379456 1325.069824,1059.412476 
	C1321.945068,1062.910278 1319.789551,1066.339722 1319.833984,1071.651855 
	C1319.913574,1081.209106 1313.267334,1086.863281 1303.711670,1086.931641 
	C1300.216187,1086.956543 1296.546021,1086.423462 1293.262817,1087.298096 
	C1286.215088,1089.175659 1281.115234,1091.068970 1286.672485,1102.027222 
	C1275.356812,1092.438843 1265.672485,1099.137695 1255.775635,1101.869385 
	C1251.611206,1103.018799 1251.832031,1105.358154 1254.155640,1108.081909 
	C1256.423950,1110.740601 1259.124878,1113.060425 1261.182251,1115.862183 
	C1264.928345,1120.963623 1267.072998,1126.647583 1265.666016,1133.645630 
	C1261.190796,1128.799927 1256.867798,1124.118896 1251.870728,1118.708130 
	C1247.581787,1121.967041 1242.878662,1124.816650 1239.071411,1128.573853 
	C1228.995483,1138.516846 1219.219238,1148.769653 1209.504761,1159.069824 
	C1205.082886,1163.758423 1205.392822,1169.937134 1206.227539,1175.617676 
	C1206.778442,1179.366333 1205.588013,1180.109863 1202.615234,1179.962036 
	C1199.325439,1179.798584 1196.047974,1179.138916 1192.764771,1179.136230 
	C1183.493286,1179.128296 1179.129395,1183.567993 1179.008423,1192.847534 
	C1178.967285,1196.002808 1179.001831,1199.159302 1177.909912,1203.384399 
	C1174.954956,1201.026855 1171.023438,1199.246460 1169.225464,1196.204956 
	C1163.533936,1186.576294 1156.203125,1184.460083 1145.688599,1187.736572 
	C1136.855835,1190.489258 1127.436157,1191.365845 1119.230103,1196.560547 
	C1119.597778,1197.926636 1119.950684,1199.176147 1120.269897,1200.434326 
	C1121.208984,1204.136230 1119.424438,1206.221191 1115.954346,1205.824951 
	C1111.926880,1205.364990 1107.831665,1204.412109 1104.071899,1202.907959 
	C1094.543335,1199.095825 1085.454468,1193.906738 1075.661377,1191.136353 
	C1069.595337,1189.420288 1062.563965,1191.142090 1055.964966,1191.272461 
	C1052.920044,1191.332642 1049.825439,1191.624268 1046.834961,1191.214600 
	C1032.531860,1189.255493 1018.314880,1186.369995 1003.954590,1185.214722 
	C990.920593,1184.166260 977.708130,1184.318970 964.634766,1185.039185 
	C949.219238,1185.888184 933.868469,1187.914185 918.490417,1189.438110 
	C916.868103,1189.598877 915.251343,1189.815674 912.956543,1190.085938 
	C912.956543,1185.488403 912.956543,1181.286621 912.956543,1175.788330 
	C907.271790,1182.155518 902.948547,1179.565674 897.762817,1176.647583 
	C875.434082,1164.082764 852.843994,1151.980957 830.283020,1139.833130 
	C828.796204,1139.032471 826.758850,1139.037476 824.977051,1139.034912 
	C805.673157,1139.007568 788.333374,1133.605225 773.510803,1120.825195 
	C766.234863,1114.551880 757.333740,1112.526489 747.990295,1112.136230 
	C744.330627,1111.983398 740.648560,1111.942749 736.994263,1112.154907 
	C711.246399,1113.648071 693.565002,1101.107544 680.999573,1079.878784 
	C674.050049,1068.137817 670.114563,1055.273315 667.905518,1041.862183 
	C666.610413,1033.999756 664.182434,1025.980225 656.215942,1023.417664 
	C650.149170,1021.466187 649.164124,1017.594482 647.629028,1012.967407 
	C634.922180,974.667419 617.770508,938.202820 601.509155,901.368225 
	C596.268188,889.496521 591.102600,877.581787 586.308960,865.525146 
	C581.560486,853.582214 583.261597,840.989990 583.113708,828.334717 
	C584.100159,828.386719 584.726257,828.353027 585.326538,828.461548 
	C592.906311,829.833191 596.167358,826.789734 594.696167,819.126526 
	C592.815063,809.328125 590.865784,799.518433 588.335083,789.873840 
	C581.787964,764.922363 570.921509,741.720703 558.728027,719.113220 
	C556.916199,715.753906 556.226990,712.693665 556.914429,708.774231 
	C561.715393,681.399963 565.937195,653.922668 570.877319,626.574646 
	C577.585876,589.437500 595.748718,558.879089 624.407043,534.262512 
	C635.254333,524.945007 645.134583,514.497498 655.397705,504.505524 
	C662.613098,497.480713 667.299927,488.949707 669.922302,479.268280 
	C672.288879,470.531158 676.787415,463.269501 683.452698,456.995728 
	C706.742554,435.074036 729.918945,413.027069 752.843079,390.724121 
	C761.235107,382.559509 770.807800,380.925537 781.812012,382.390350 
	C788.293030,383.253052 794.911987,383.086792 801.469788,383.362610 
	C804.838501,383.504272 806.007385,381.503021 807.256226,378.568542 
	C814.903931,360.597687 827.705200,348.390289 847.368591,344.645203 
	C851.208984,343.913757 855.429993,343.870361 859.246948,344.641144 
	C864.622620,345.726654 869.263733,344.864624 873.283875,341.452606 
	C879.499695,336.176971 885.445862,330.584808 891.562866,325.190887 
	C894.303162,322.774414 896.944702,320.111755 900.056396,318.285461 
	C903.755493,316.114471 906.067139,317.719177 905.981873,321.966705 
	C905.890076,326.538605 905.577393,331.106049 905.346741,335.978424 
	C906.368286,335.734619 907.457825,335.771332 908.152222,335.265625 
	C928.198303,320.665955 951.131348,312.102753 974.108521,303.627655 
	C978.478577,302.015778 983.123596,300.912140 987.167053,298.704437 
	C994.168152,294.881927 999.914124,297.328369 1005.543213,301.296661 
	C1008.259644,303.211670 1010.724670,305.482910 1013.306458,307.589355 
	C1018.276123,311.644226 1023.562134,314.542389 1031.410278,311.497864 
	C1030.959717,319.590454 1030.977295,327.001923 1030.005005,334.281158 
	C1029.233032,340.059631 1025.057739,343.543213 1019.457581,345.071686 
	C1012.034546,347.097656 1004.539001,347.989136 996.913269,346.185760 
	C996.275085,346.034851 995.582275,346.033569 994.921265,346.072327 
	C981.039062,346.887207 967.063843,346.969330 953.295105,348.695648 
	C921.127502,352.728882 891.484253,364.604065 863.433716,380.369171 
	C838.474854,394.396667 813.531677,408.541962 789.416748,423.943024 
	C777.471863,431.571686 767.139893,441.848724 756.544250,451.442200 
	C732.817444,472.924835 709.559570,494.885162 689.940857,520.371948 
	C661.227539,557.673584 645.242798,599.775696 640.930237,646.620544 
	C638.136780,676.963989 634.441345,707.226318 630.922852,737.498596 
	C630.512268,741.031006 629.280151,744.803833 627.353577,747.765930 
	C618.966431,760.661133 618.361023,774.267822 621.312927,788.963135 
	C624.259521,803.632019 625.768494,818.589844 627.888062,833.423828 
	C628.026855,834.395447 627.998779,835.390869 628.075317,836.908997 
	C623.940308,834.964783 619.989441,833.270630 617.297302,838.356812 
	C615.174133,842.368225 617.435547,850.630188 621.574402,854.262329 
	C625.703613,857.886108 628.102234,854.177124 631.308777,851.645203 
	C632.571594,854.200012 633.844299,856.463684 634.838989,858.843506 
	C638.239929,866.980042 641.936035,875.021790 644.809326,883.344849 
	C653.125488,907.434082 666.451233,928.206909 684.801208,945.845581 
	C717.113220,976.905273 749.370056,1008.022400 781.655457,1039.109741 
	C791.258423,1048.356445 800.778748,1057.693848 810.591858,1066.712158 
	C812.216614,1068.205322 815.330017,1069.205688 817.459045,1068.815796 
	C824.361328,1067.551758 831.970093,1067.508789 836.586426,1060.649048 
	C839.330566,1066.535889 836.687744,1071.073730 827.159607,1076.537354 
	C841.524963,1085.690674 856.185242,1093.959961 872.536499,1097.703369 
	C887.712891,1101.177856 903.312012,1103.074341 918.823425,1104.760010 
	C949.419861,1108.084961 979.725830,1112.855469 1009.607605,1120.294800 
	C1012.359558,1120.979980 1015.492371,1120.707397 1018.356812,1120.274048 
	C1033.939697,1117.916626 1049.458008,1115.097290 1065.077515,1113.035400 
	C1070.502808,1112.319336 1075.099731,1111.038696 1078.580444,1106.703979 
	C1079.307129,1105.799072 1080.058472,1104.757446 1081.041382,1104.239746 
	C1087.583130,1100.793701 1089.351196,1095.006714 1088.749634,1087.477783 
	C1090.550537,1088.699463 1091.771606,1089.527832 1094.504883,1091.381958 
	C1093.757568,1086.435181 1093.215698,1082.848389 1092.735229,1078.731567 
	C1092.796753,1078.201660 1093.087280,1077.904907 1093.087280,1077.904907 
M634.552612,898.639160 
	C636.828308,903.936035 641.259766,906.437500 646.697876,908.860901 
	C643.823608,902.746704 641.357483,897.521606 638.909729,892.287964 
	C636.738708,887.645752 634.818420,882.864990 632.321106,878.406616 
	C631.244202,876.484070 628.991943,875.219788 627.539307,873.898254 
	C629.855591,882.196106 632.049377,890.055359 634.552612,898.639160 
M616.470154,884.966858 
	C618.736389,887.771057 621.002625,890.575256 623.268860,893.379395 
	C622.411438,887.860107 620.937561,882.678589 619.209473,877.583313 
	C618.067322,874.215454 615.926270,874.763733 614.016418,876.893005 
	C610.971985,880.287048 614.383362,882.141785 616.470154,884.966858 
z"/>
<path fill="#384151" opacity="1.000000" stroke="none" 
	d="
M1179.103271,504.193481 
	C1133.360107,669.935303 1087.699951,835.278687 1041.998169,1000.772888 
	C1015.142151,1000.772888 988.523804,1000.772888 961.181702,1000.772888 
	C914.535522,834.489319 867.826111,667.980408 821.036133,501.184265 
	C844.442749,501.184265 867.408386,501.184265 890.815186,501.184265 
	C927.941895,645.341553 965.070374,789.505493 1002.198792,933.669495 
	C1002.507263,933.702026 1002.815735,933.734619 1003.124146,933.767212 
	C1039.756104,789.666748 1076.388062,645.566284 1113.072266,501.259827 
	C1135.331909,501.259827 1157.428955,501.259827 1179.721680,501.259827 
	C1179.523438,502.198792 1179.354858,502.996918 1179.103271,504.193481 
z"/>
<path fill="#384151" opacity="1.000000" stroke="none" 
	d="
M1443.977539,661.982788 
	C1440.925171,673.187866 1437.204468,684.262512 1434.985962,695.630249 
	C1432.064819,710.597900 1430.284058,725.790039 1428.101807,740.898560 
	C1427.466187,745.298340 1427.133301,749.741882 1425.887939,754.328552 
	C1425.272705,749.108948 1424.411987,743.903503 1424.109741,738.665833 
	C1423.793457,733.185669 1423.745361,727.658264 1424.076660,722.181519 
	C1424.395996,716.902466 1425.367798,711.663940 1426.019287,706.403503 
	C1426.693237,700.961914 1427.326538,695.515320 1428.073120,689.271484 
	C1426.867676,690.374695 1426.307129,691.117310 1425.563110,691.525635 
	C1423.345703,692.742798 1420.253662,695.322327 1418.973267,694.634338 
	C1416.764038,693.447083 1415.299561,690.347839 1414.225952,687.759155 
	C1413.513794,686.041931 1414.359985,683.735596 1413.900391,681.840454 
	C1413.419067,679.856079 1412.723389,677.325073 1411.241333,676.273621 
	C1394.765625,664.585388 1384.990234,647.839600 1375.848267,630.505981 
	C1373.462769,625.982727 1373.056274,621.999512 1374.366455,616.866150 
	C1377.012573,606.498779 1377.656494,595.808350 1373.600342,585.472595 
	C1370.895874,578.581482 1366.188232,573.190247 1359.910522,569.372437 
	C1349.931396,563.303650 1343.090210,554.871399 1339.648926,543.716431 
	C1336.129517,532.307739 1332.273682,520.980103 1329.371948,509.414490 
	C1328.203247,504.756012 1329.179688,499.559357 1329.179688,493.944061 
	C1327.685913,494.554047 1326.709473,494.902802 1325.775879,495.342651 
	C1321.415527,497.396820 1317.121704,499.602570 1312.700806,501.515076 
	C1306.898193,504.025360 1301.850952,502.963989 1296.583618,499.128815 
	C1273.424438,482.266693 1250.336060,465.270660 1226.589966,449.260742 
	C1199.131226,430.747742 1170.996094,413.238464 1143.191528,395.236755 
	C1139.423340,392.797089 1135.450928,392.178772 1130.997437,391.860352 
	C1113.055542,390.577637 1095.692871,386.826630 1080.832153,375.941345 
	C1076.199097,372.547699 1071.687378,368.470001 1068.452759,363.785370 
	C1059.845459,351.319763 1068.146729,335.393738 1083.286133,334.991058 
	C1091.990112,334.759552 1100.716064,335.356934 1110.296387,335.603394 
	C1113.105469,327.606476 1120.224731,325.299774 1129.540894,325.687805 
	C1145.546753,326.354523 1161.723633,324.994507 1177.577148,326.753387 
	C1201.935181,329.455811 1224.584473,338.703705 1246.536987,349.297913 
	C1276.304932,363.663696 1302.517456,382.876404 1323.527954,408.576843 
	C1329.180420,415.491272 1333.542480,423.481232 1338.312744,431.092834 
	C1362.541870,469.754486 1386.609131,508.518097 1411.002930,547.075317 
	C1414.954956,553.322083 1417.149780,559.683167 1417.924438,566.971741 
	C1419.905396,585.609924 1422.501953,604.182251 1424.541626,622.814880 
	C1425.423462,630.869141 1425.580811,639.005127 1425.992798,647.107727 
	C1426.478882,656.670105 1426.884521,666.236572 1428.406250,676.844971 
	C1430.490845,674.839294 1432.620972,672.878540 1434.649048,670.817200 
	C1437.603271,667.814575 1440.483887,664.739502 1443.709961,661.857056 
	C1444.024170,662.018921 1443.977539,661.982788 1443.977539,661.982788 
z"/>
<path fill="#384151" opacity="1.000000" stroke="none" 
	d="
M1444.048828,662.035156 
	C1444.153320,661.995361 1444.233032,661.939209 1444.145264,661.932983 
	C1443.977539,661.982788 1444.024170,662.018921 1444.048828,662.035156 
z"/>
<path fill="#384251" opacity="1.000000" stroke="none" 
	d="
M1092.645264,1078.343628 
	C1092.409790,1078.121216 1092.325806,1077.756714 1092.241821,1077.392334 
	C1092.467529,1077.397949 1092.693359,1077.403564 1093.003174,1077.656982 
	C1093.087280,1077.904907 1092.796753,1078.201660 1092.645264,1078.343628 
z"/>
<path fill="#F2B676" opacity="1.000000" stroke="none" 
	d="
M634.397949,898.276855 
	C632.049377,890.055359 629.855591,882.196106 627.539307,873.898254 
	C628.991943,875.219788 631.244202,876.484070 632.321106,878.406616 
	C634.818420,882.864990 636.738708,887.645752 638.909729,892.287964 
	C641.357483,897.521606 643.823608,902.746704 646.697876,908.860901 
	C641.259766,906.437500 636.828308,903.936035 634.397949,898.276855 
z"/>
<path fill="#F0B576" opacity="1.000000" stroke="none" 
	d="
M616.242432,884.679321 
	C614.383362,882.141785 610.971985,880.287048 614.016418,876.893005 
	C615.926270,874.763733 618.067322,874.215454 619.209473,877.583313 
	C620.937561,882.678589 622.411438,887.860107 623.268860,893.379395 
	C621.002625,890.575256 618.736389,887.771057 616.242432,884.679321 
z"/>
</svg>